<mxfile host="app.diagrams.net" modified="2024-05-15T15:17:49.286Z" agent="Mozilla/5.0 (Windows NT 10.0; Win64; x64) AppleWebKit/537.36 (KHTML, like Gecko) Chrome/124.0.0.0 Safari/537.36" etag="i2L4mR5BlWhimxIG3cM3" version="24.3.1" type="device">
  <diagram id="C5RBs43oDa-KdzZeNtuy" name="Page-1">
    <mxGraphModel dx="1434" dy="756" grid="1" gridSize="10" guides="1" tooltips="1" connect="1" arrows="1" fold="1" page="1" pageScale="1" pageWidth="827" pageHeight="1169" math="0" shadow="0">
      <root>
        <mxCell id="WIyWlLk6GJQsqaUBKTNV-0" />
        <mxCell id="WIyWlLk6GJQsqaUBKTNV-1" parent="WIyWlLk6GJQsqaUBKTNV-0" />
        <mxCell id="CTqsRt9kM9DtrGQMtsPB-4" style="edgeStyle=orthogonalEdgeStyle;rounded=0;orthogonalLoop=1;jettySize=auto;html=1;entryX=0.5;entryY=0;entryDx=0;entryDy=0;" parent="WIyWlLk6GJQsqaUBKTNV-1" source="CTqsRt9kM9DtrGQMtsPB-0" target="CTqsRt9kM9DtrGQMtsPB-3" edge="1">
          <mxGeometry relative="1" as="geometry" />
        </mxCell>
        <mxCell id="CTqsRt9kM9DtrGQMtsPB-0" value="Start" style="ellipse;whiteSpace=wrap;html=1;" parent="WIyWlLk6GJQsqaUBKTNV-1" vertex="1">
          <mxGeometry x="520" y="50" width="80" height="30" as="geometry" />
        </mxCell>
        <mxCell id="CTqsRt9kM9DtrGQMtsPB-14" style="edgeStyle=orthogonalEdgeStyle;rounded=0;orthogonalLoop=1;jettySize=auto;html=1;" parent="WIyWlLk6GJQsqaUBKTNV-1" source="CTqsRt9kM9DtrGQMtsPB-2" target="CTqsRt9kM9DtrGQMtsPB-15" edge="1">
          <mxGeometry relative="1" as="geometry">
            <mxPoint x="560" y="290" as="targetPoint" />
          </mxGeometry>
        </mxCell>
        <mxCell id="CTqsRt9kM9DtrGQMtsPB-2" value="image = next image in image list" style="rounded=0;whiteSpace=wrap;html=1;" parent="WIyWlLk6GJQsqaUBKTNV-1" vertex="1">
          <mxGeometry x="467.5" y="160" width="185" height="30" as="geometry" />
        </mxCell>
        <mxCell id="CTqsRt9kM9DtrGQMtsPB-10" style="edgeStyle=orthogonalEdgeStyle;rounded=0;orthogonalLoop=1;jettySize=auto;html=1;entryX=0.5;entryY=0;entryDx=0;entryDy=0;" parent="WIyWlLk6GJQsqaUBKTNV-1" source="CTqsRt9kM9DtrGQMtsPB-3" target="CTqsRt9kM9DtrGQMtsPB-2" edge="1">
          <mxGeometry relative="1" as="geometry" />
        </mxCell>
        <mxCell id="CTqsRt9kM9DtrGQMtsPB-3" value="image list,&lt;div&gt;confidence threshold&lt;/div&gt;" style="shape=parallelogram;perimeter=parallelogramPerimeter;whiteSpace=wrap;html=1;fixedSize=1;" parent="WIyWlLk6GJQsqaUBKTNV-1" vertex="1">
          <mxGeometry x="485" y="100" width="150" height="40" as="geometry" />
        </mxCell>
        <mxCell id="CTqsRt9kM9DtrGQMtsPB-16" style="edgeStyle=orthogonalEdgeStyle;rounded=0;orthogonalLoop=1;jettySize=auto;html=1;" parent="WIyWlLk6GJQsqaUBKTNV-1" source="CTqsRt9kM9DtrGQMtsPB-15" target="CTqsRt9kM9DtrGQMtsPB-17" edge="1">
          <mxGeometry relative="1" as="geometry">
            <mxPoint x="560" y="400" as="targetPoint" />
          </mxGeometry>
        </mxCell>
        <mxCell id="CTqsRt9kM9DtrGQMtsPB-15" value="Determine the bounding boxes, image area and image center using the YOLO model." style="rounded=0;whiteSpace=wrap;html=1;" parent="WIyWlLk6GJQsqaUBKTNV-1" vertex="1">
          <mxGeometry x="425" y="210" width="270" height="50" as="geometry" />
        </mxCell>
        <mxCell id="CTqsRt9kM9DtrGQMtsPB-19" style="edgeStyle=orthogonalEdgeStyle;rounded=0;orthogonalLoop=1;jettySize=auto;html=1;entryX=0.5;entryY=0;entryDx=0;entryDy=0;" parent="WIyWlLk6GJQsqaUBKTNV-1" source="CTqsRt9kM9DtrGQMtsPB-17" target="CTqsRt9kM9DtrGQMtsPB-18" edge="1">
          <mxGeometry relative="1" as="geometry" />
        </mxCell>
        <mxCell id="CTqsRt9kM9DtrGQMtsPB-17" value="Remove bounding boxes with confidence score lower then &lt;span style=&quot;background-color: initial;&quot;&gt;confidence threshold&lt;/span&gt;" style="rounded=0;whiteSpace=wrap;html=1;" parent="WIyWlLk6GJQsqaUBKTNV-1" vertex="1">
          <mxGeometry x="440" y="280" width="240" height="40" as="geometry" />
        </mxCell>
        <mxCell id="CTqsRt9kM9DtrGQMtsPB-20" style="edgeStyle=orthogonalEdgeStyle;rounded=0;orthogonalLoop=1;jettySize=auto;html=1;" parent="WIyWlLk6GJQsqaUBKTNV-1" source="CTqsRt9kM9DtrGQMtsPB-18" target="CTqsRt9kM9DtrGQMtsPB-21" edge="1">
          <mxGeometry relative="1" as="geometry">
            <mxPoint x="560" y="600" as="targetPoint" />
          </mxGeometry>
        </mxCell>
        <mxCell id="CTqsRt9kM9DtrGQMtsPB-18" value="bounding_box = next bounding box in predictions" style="rounded=0;whiteSpace=wrap;html=1;" parent="WIyWlLk6GJQsqaUBKTNV-1" vertex="1">
          <mxGeometry x="425" y="340" width="270" height="30" as="geometry" />
        </mxCell>
        <mxCell id="CTqsRt9kM9DtrGQMtsPB-23" style="edgeStyle=orthogonalEdgeStyle;rounded=0;orthogonalLoop=1;jettySize=auto;html=1;entryX=0.5;entryY=0;entryDx=0;entryDy=0;" parent="WIyWlLk6GJQsqaUBKTNV-1" source="CTqsRt9kM9DtrGQMtsPB-21" target="CTqsRt9kM9DtrGQMtsPB-22" edge="1">
          <mxGeometry relative="1" as="geometry" />
        </mxCell>
        <mxCell id="CTqsRt9kM9DtrGQMtsPB-21" value="&lt;div&gt;&lt;br&gt;&lt;/div&gt;&lt;div&gt;&lt;span style=&quot;background-color: initial;&quot;&gt;Detremine the bounding_box image, the percentage area that the bounding box takes up in relation to the entire image and the distance between the center of the bounding_box image and the full image. Append these values to cropped_images,&amp;nbsp;&lt;/span&gt;space_takenup&amp;nbsp; and&amp;nbsp;&lt;span style=&quot;background-color: initial;&quot;&gt;dist_between_centers respectively&lt;/span&gt;&lt;span style=&quot;background-color: initial;&quot;&gt;.&lt;/span&gt;&lt;/div&gt;&lt;div&gt;&lt;span style=&quot;background-color: initial;&quot;&gt;&lt;br&gt;&lt;/span&gt;&lt;/div&gt;" style="rounded=0;whiteSpace=wrap;html=1;" parent="WIyWlLk6GJQsqaUBKTNV-1" vertex="1">
          <mxGeometry x="397.5" y="390" width="325" height="100" as="geometry" />
        </mxCell>
        <mxCell id="CTqsRt9kM9DtrGQMtsPB-24" value="Yes" style="edgeStyle=orthogonalEdgeStyle;rounded=0;orthogonalLoop=1;jettySize=auto;html=1;entryX=0.5;entryY=0;entryDx=0;entryDy=0;" parent="WIyWlLk6GJQsqaUBKTNV-1" source="CTqsRt9kM9DtrGQMtsPB-22" target="CTqsRt9kM9DtrGQMtsPB-26" edge="1">
          <mxGeometry relative="1" as="geometry">
            <mxPoint x="560" y="640" as="targetPoint" />
          </mxGeometry>
        </mxCell>
        <mxCell id="CTqsRt9kM9DtrGQMtsPB-25" value="No" style="edgeStyle=orthogonalEdgeStyle;rounded=0;orthogonalLoop=1;jettySize=auto;html=1;entryX=0;entryY=0.5;entryDx=0;entryDy=0;exitX=0;exitY=0.5;exitDx=0;exitDy=0;" parent="WIyWlLk6GJQsqaUBKTNV-1" source="CTqsRt9kM9DtrGQMtsPB-22" target="CTqsRt9kM9DtrGQMtsPB-18" edge="1">
          <mxGeometry relative="1" as="geometry">
            <mxPoint x="390" y="520" as="targetPoint" />
            <Array as="points">
              <mxPoint x="360" y="550" />
              <mxPoint x="360" y="355" />
            </Array>
          </mxGeometry>
        </mxCell>
        <mxCell id="CTqsRt9kM9DtrGQMtsPB-22" value="all bounding&amp;nbsp;&lt;div&gt;boxes in predictions processed&lt;/div&gt;" style="rhombus;whiteSpace=wrap;html=1;" parent="WIyWlLk6GJQsqaUBKTNV-1" vertex="1">
          <mxGeometry x="485" y="510" width="150" height="80" as="geometry" />
        </mxCell>
        <mxCell id="CTqsRt9kM9DtrGQMtsPB-28" value="Yes" style="edgeStyle=orthogonalEdgeStyle;rounded=0;orthogonalLoop=1;jettySize=auto;html=1;entryX=0.5;entryY=0;entryDx=0;entryDy=0;" parent="WIyWlLk6GJQsqaUBKTNV-1" source="CTqsRt9kM9DtrGQMtsPB-26" target="CTqsRt9kM9DtrGQMtsPB-30" edge="1">
          <mxGeometry relative="1" as="geometry">
            <mxPoint x="570" y="740" as="targetPoint" />
          </mxGeometry>
        </mxCell>
        <mxCell id="CTqsRt9kM9DtrGQMtsPB-29" value="No" style="edgeStyle=orthogonalEdgeStyle;rounded=0;orthogonalLoop=1;jettySize=auto;html=1;entryX=1;entryY=0.5;entryDx=0;entryDy=0;exitX=1;exitY=0.5;exitDx=0;exitDy=0;" parent="WIyWlLk6GJQsqaUBKTNV-1" source="CTqsRt9kM9DtrGQMtsPB-26" target="CTqsRt9kM9DtrGQMtsPB-2" edge="1">
          <mxGeometry relative="1" as="geometry">
            <mxPoint x="280" y="650" as="targetPoint" />
            <Array as="points">
              <mxPoint x="760" y="670" />
              <mxPoint x="760" y="175" />
            </Array>
          </mxGeometry>
        </mxCell>
        <mxCell id="CTqsRt9kM9DtrGQMtsPB-26" value="all images in image list&amp;nbsp;&lt;span style=&quot;background-color: initial;&quot;&gt;processed&lt;/span&gt;" style="rhombus;whiteSpace=wrap;html=1;" parent="WIyWlLk6GJQsqaUBKTNV-1" vertex="1">
          <mxGeometry x="485" y="630" width="150" height="80" as="geometry" />
        </mxCell>
        <mxCell id="CTqsRt9kM9DtrGQMtsPB-32" style="edgeStyle=orthogonalEdgeStyle;rounded=0;orthogonalLoop=1;jettySize=auto;html=1;entryX=0.5;entryY=0;entryDx=0;entryDy=0;" parent="WIyWlLk6GJQsqaUBKTNV-1" source="CTqsRt9kM9DtrGQMtsPB-30" target="CTqsRt9kM9DtrGQMtsPB-31" edge="1">
          <mxGeometry relative="1" as="geometry" />
        </mxCell>
        <mxCell id="CTqsRt9kM9DtrGQMtsPB-30" value="Return&amp;nbsp;&lt;span style=&quot;background-color: initial;&quot;&gt;cropped_images,&amp;nbsp;&lt;/span&gt;space_takenup and&amp;nbsp;&lt;span style=&quot;background-color: initial;&quot;&gt;dist_between_centers.&lt;/span&gt;" style="shape=parallelogram;perimeter=parallelogramPerimeter;whiteSpace=wrap;html=1;fixedSize=1;" parent="WIyWlLk6GJQsqaUBKTNV-1" vertex="1">
          <mxGeometry x="430" y="750" width="260" height="60" as="geometry" />
        </mxCell>
        <mxCell id="CTqsRt9kM9DtrGQMtsPB-31" value="End" style="ellipse;whiteSpace=wrap;html=1;" parent="WIyWlLk6GJQsqaUBKTNV-1" vertex="1">
          <mxGeometry x="520" y="830" width="80" height="30" as="geometry" />
        </mxCell>
      </root>
    </mxGraphModel>
  </diagram>
</mxfile>
